<svg viewBox="0 0 600 600" xmlns="http://www.w3.org/2000/svg" style="background:transparent">
  <style>
    .node {
      fill: white;
      filter: url(#glow);
    }
    .core {
      fill: cyan;
      filter: url(#glow);
      animation: pulse 4s infinite ease-in-out;
    }
    .line {
      stroke: url(#fadeStroke);
      stroke-width: 1;
      stroke-linecap: round;
      animation: shimmer 6s linear infinite;
    }

    @keyframes shimmer {
      0% { stroke-dashoffset: 0; }
      100% { stroke-dashoffset: 20; }
    }

    @keyframes pulse {
      0%, 100% { r: 8; opacity: 1; }
      50% { r: 10; opacity: 0.8; }
    }
  </style>

  <defs>
    <!-- Glow filter -->
    <filter id="glow" x="-50%" y="-50%" width="200%" height="200%">
      <feGaussianBlur stdDeviation="2.5" result="blur"/>
      <feMerge>
        <feMergeNode in="blur"/>
        <feMergeNode in="SourceGraphic"/>
      </feMerge>
    </filter>

    <!-- Stroke gradient: white to black -->
    <linearGradient id="fadeStroke" x1="0%" y1="0%" x2="100%" y2="0%">
      <stop offset="0%" stop-color="white" stop-opacity="1" />
      <stop offset="100%" stop-color="black" stop-opacity="0.2" />
    </linearGradient>
  </defs>

  <!-- Lines -->
  <line class="line" x1="100" y1="200" x2="300" y2="300" />
  <line class="line" x1="150" y1="100" x2="300" y2="300" />
  <line class="line" x1="400" y1="150" x2="300" y2="300" />
  <line class="line" x1="500" y1="250" x2="300" y2="300" />
  <line class="line" x1="450" y1="400" x2="300" y2="300" />
  <line class="line" x1="350" y1="500" x2="300" y2="300" />
  <line class="line" x1="200" y1="450" x2="300" y2="300" />
  <line class="line" x1="100" y1="350" x2="300" y2="300" />
  <line class="line" x1="220" y1="230" x2="420" y2="360" />
  <line class="line" x1="150" y1="100" x2="500" y2="250" />
  <line class="line" x1="200" y1="0" x2="500" y2="250"/>

  <!-- Nodes -->
  <circle class="core" cx="300" cy="300" r="8" />
  <circle class="node" cx="100" cy="200" r="3" />
  <circle class="node" cx="150" cy="100" r="2.5" />
  <circle class="node" cx="400" cy="150" r="2.5" />
  <circle class="node" cx="500" cy="250" r="3.5" />
  <circle class="node" cx="450" cy="400" r="2.8" />
  <circle class="node" cx="350" cy="500" r="3" />
  <circle class="node" cx="200" cy="450" r="2.5" />
  <circle class="node" cx="100" cy="350" r="2.8" />
  <circle class="node" cx="220" cy="230" r="2" />
  <circle class="node" cx="420" cy="360" r="2" />
   <circle class="node" cx="200" cy="450" r="2.5" />
  <circle class="node" cx="100" cy="350" r="2.8" />
  <circle class="node" cx="220" cy="230" r="2" />
  <circle class="node" cx="420" cy="360" r="2" />
  <circle class="node" cx="200" cy="0" r="6"/>
</svg>
